<svg viewBox="0 0 342 254" xmlns="http://www.w3.org/2000/svg" fill-rule="evenodd" clip-rule="evenodd" stroke-linejoin="round" stroke-miterlimit="1.414"><path d="M314.2 96.2c0-37.8-31.9-68.5-71-68.5-3.6 0-7.3.2-10.9.8-30.4 4.3-50.8 26.2-62.2 43-11.4-16.8-31.8-38.7-62.2-43-3.6-.5-7.3-.8-10.9-.8-39.2 0-71 30.7-71 68.5s31.9 68.5 71 68.5c3.6 0 7.3-.2 11-.8 30.4-4.4 50.8-26.3 62.2-43.1 11.4 16.8 31.8 38.7 62.2 43.1 3.6.5 7.3.8 11 .8 38.9 0 70.8-30.7 70.8-68.5m-209.8 43.7c-2.5.4-5 .5-7.5.5-25.8 0-46.7-19.9-46.7-44.2C50.2 71.8 71.2 52 97 52c2.5 0 5 .2 7.5.5 28.7 4.1 46.2 32.4 52.2 43.7-6.1 11.4-23.7 39.6-52.3 43.7m79.1-43.7c5.9-11.3 23.5-39.6 52.2-43.7 2.5-.3 5-.5 7.5-.5 25.8 0 46.7 19.9 46.7 44.2 0 24.4-21 44.2-46.7 44.2-2.5 0-5-.2-7.5-.5-28.7-4.1-46.3-32.4-52.2-43.7" fill="#00979d" fill-rule="nonzero"/><path d="M77.3 89.5H120v13.7H77.3V89.5zm170.6 13.8h14.4V89.5h-14.4V75.1h-13.8v14.4h-14.4v13.8h14.4v14.4h13.8v-14.4zM46 185.1l-12.4 39.7h10l2-8.1H57l2.2 8.1h10.4L57 185.1H46zm1.5 23.9l3.6-14.5L55 209h-7.5zm59.6-10.7c0-7.6-4.1-13.3-15.1-13.3H76v39.7h9.8v-12.6h5l6 12.6h11.6l-7.7-14.5c4.2-2.3 6.4-6.4 6.4-11.9m-16.1 6h-5.2v-11.2h5c4.6 0 5.8 1.8 5.8 5.3 0 4.4-2.2 5.9-5.6 5.9m37-19.2h-13v39.7h13c16.8 0 19.7-10.8 19.7-20.2.1-12.5-4.8-19.5-19.7-19.5m.6 31.5h-3.7v-23.5h2.9c8.8 0 9.6 4.1 9.6 11.9-.1 6.7-.7 11.6-8.8 11.6m48.3-7.3c0 6-1.7 8-6.1 8-3.7 0-6-1.5-6-8.1V185H155v26c0 12 8.7 14.3 15.4 14.3 7 0 16-2.5 16-14.2V185H177l-.1 24.3zm18.2-16.1h10.2v23.4h-10.2v8.2h30.4v-8.2h-10.3v-23.4h10.3v-8.1h-30.4v8.1zm62.1 15.7l-12.9-23.8h-10.7v39.7h9.3l-.1-25.4 13.6 25.4h9.9v-39.7h-9.1v23.8zm32.3-24.3c-12 0-16.6 8.8-16.6 20.8 0 13.1 5.2 20 16.7 20 12.8 0 17-9 17-20.4-.1-15.2-5.9-20.4-17.1-20.4m0 32.8c-5.7 0-6.2-4-6.2-12 0-9.7.9-12.8 6.2-12.8 5.8 0 6.6 2.7 6.6 12.4-.1 9.1-.9 12.4-6.6 12.4m11.2-178c0-3.5 2.8-6.4 6.2-6.4 3.5 0 6.3 2.9 6.3 6.4 0 3.7-2.8 6.4-6.3 6.4-3.4 0-6.2-2.9-6.2-6.4zm11.4 0c0-2.9-2.2-5.4-5.2-5.4s-5.1 2.2-5.1 5.4c0 3.3 2.4 5.4 5.1 5.4 3 0 5.2-2.1 5.2-5.4zm-8.2-4h3.1c2.4 0 3.3 1 3.3 2.7 0 1.1-.5 1.9-1.5 2.3l1.5 3h-2.2l-1.1-2.7h-1.1v2.7h-2v-8zm2.9 3.9c.9 0 1.4-.3 1.4-1.3 0-.9-.3-1.2-1.4-1.2h-1v2.6l1-.1z" fill="#00979d" fill-rule="nonzero"/></svg>